<?xml version="1.0" encoding="utf-8"?>
<!-- Generator: Adobe Illustrator 24.2.1, SVG Export Plug-In . SVG Version: 6.00 Build 0)  -->
<svg version="1.1" id="Layer_1" xmlns="http://www.w3.org/2000/svg" xmlns:xlink="http://www.w3.org/1999/xlink" x="0px" y="0px"
	 viewBox="0 0 887.47 822.29" style="enable-background:new 0 0 887.47 822.29;" xml:space="preserve">
<style type="text/css">
	.st0{fill:#8AA7FF;}
	.st1{fill:#D4DFFF;}
	.st2{fill-rule:evenodd;clip-rule:evenodd;fill:#454C53;}
	.st3{fill-rule:evenodd;clip-rule:evenodd;fill:#F6B73B;}
	.st4{fill-rule:evenodd;clip-rule:evenodd;fill:#FFD740;}
	.st5{fill-rule:evenodd;clip-rule:evenodd;fill:#BFA233;}
	.st6{fill-rule:evenodd;clip-rule:evenodd;fill:#576D7E;}
	.st7{fill-rule:evenodd;clip-rule:evenodd;fill:#778997;}
</style>
<path class="st0" d="M97.08,217.18C231.72,99.07,701.55-93.4,843.79,52.82s-96.96,575.75-231.6,693.87s-359.1,95.33-501.34-50.89
	S-37.56,335.29,97.08,217.18z"/>
<path class="st1" d="M218.28,626.16C167.48,484.94,180.19,65.6,360.86,7s460.87,265.73,511.67,406.95s-54.49,303.2-235.15,361.8
	S269.07,767.38,218.28,626.16z"/>
<g>
	<path class="st2" d="M473.78,605.56c8.3,0,15.07-8.41,15.07-18.71c0-10.31-6.77-18.71-15.07-18.71c-8.3,0-15.07,8.41-15.07,18.71
		C458.71,597.15,465.48,605.56,473.78,605.56L473.78,605.56z"/>
	<path class="st3" d="M358.48,143.41c-2.21-3.69-0.9-8.44,2.93-10.57c3.83-2.14,8.76-0.87,10.98,2.82l16.94,28.27
		c2.21,3.69,0.9,8.43-2.93,10.57c-3.83,2.14-8.76,0.87-10.98-2.82L358.48,143.41L358.48,143.41z M282.09,222.66
		c-3.84-2.14-5.15-6.89-2.93-10.58c2.22-3.69,7.14-4.95,10.97-2.82l29.34,16.32c3.84,2.14,5.15,6.89,2.93,10.58
		c-2.22,3.69-7.14,4.95-10.97,2.82L282.09,222.66L282.09,222.66L282.09,222.66z M257.08,328.11c-4.44,0-8.04-3.47-8.04-7.75
		c0-4.28,3.6-7.75,8.04-7.75h33.88c4.44,0,8.04,3.47,8.04,7.75c0,4.28-3.6,7.75-8.04,7.75H257.08L257.08,328.11L257.08,328.11z
		 M690.47,312.61c4.44,0,8.04,3.47,8.04,7.75c0,4.28-3.6,7.75-8.04,7.75H656.6c-4.44,0-8.04-3.47-8.04-7.75
		c0-4.28,3.6-7.75,8.04-7.75H690.47L690.47,312.61L690.47,312.61z M657.42,209.26c3.83-2.13,8.75-0.87,10.97,2.82
		c2.22,3.69,0.91,8.44-2.93,10.58l-29.34,16.32c-3.83,2.13-8.75,0.87-10.97-2.82c-2.22-3.69-0.91-8.44,2.93-10.58L657.42,209.26
		L657.42,209.26L657.42,209.26z M575.17,135.66c2.22-3.7,7.15-4.96,10.98-2.82c3.83,2.14,5.14,6.88,2.93,10.57l-16.94,28.27
		c-2.22,3.7-7.15,4.96-10.98,2.82c-3.83-2.14-5.14-6.88-2.93-10.57L575.17,135.66L575.17,135.66L575.17,135.66z M465.74,111.56
		c0-4.28,3.6-7.75,8.04-7.75c4.44,0,8.04,3.47,8.04,7.75v32.64c0,4.28-3.6,7.75-8.04,7.75c-4.44,0-8.04-3.47-8.04-7.75V111.56
		L465.74,111.56L465.74,111.56z"/>
	<path class="st4" d="M544.79,511.24c-0.32-16.83-0.59-39.19,1.22-44.4c8.33-24.06,20.33-43.02,31.59-60.82
		c16.82-26.57,32.04-50.61,32.04-85.67c0-36.15-15.21-68.88-39.8-92.57c-24.59-23.69-58.55-38.34-96.07-38.34
		c-37.52,0-71.48,14.65-96.07,38.34c-24.59,23.69-39.79,56.42-39.79,92.57c0,35.07,15.22,59.11,32.04,85.67
		c11.29,17.82,23.32,36.82,31.65,60.95c0.22,0.63,0.42,1.79,0.6,3.35c0.2,1.77,0.36,3.86,0.47,6.17c0.46,9.62,0.29,23.45,0.09,34.74
		C450.1,511.24,497.45,511.24,544.79,511.24L544.79,511.24z"/>
	<path class="st5" d="M497.98,381.49c-4.67,4.5-5.51,10.98-1.88,14.48c3.63,3.5,10.36,2.69,15.02-1.81
		c4.67-4.5,5.51-10.98,1.88-14.48C509.37,376.19,502.64,377,497.98,381.49L497.98,381.49z M449.58,381.49
		c-4.67-4.5-11.39-5.31-15.02-1.81c-3.63,3.5-2.79,9.98,1.88,14.48s11.39,5.31,15.02,1.81
		C455.09,392.47,454.25,385.99,449.58,381.49L449.58,381.49L449.58,381.49z M493.46,406.1v102.36c0,2.95-2.51,5.37-5.57,5.37h0
		c-3.07,0-5.57-2.42-5.57-5.37c0-33-0.3-66.06-0.41-99.05h-16.23c-0.11,32.99-0.41,66.05-0.41,99.05c0,2.95-2.51,5.37-5.57,5.37h0
		c-3.07,0-5.57-2.42-5.57-5.37V406.1c-15.04,8.25-34.24-2.13-34.24-19.21c0-12.2,10.26-22.08,22.92-22.08
		c12.66,0,22.92,9.89,22.92,22.08c0,3.47,0,6.94-0.01,10.41h16.17c-0.01-3.47-0.01-6.94-0.01-10.41c0-12.2,10.26-22.08,22.92-22.08
		c12.66,0,22.92,9.89,22.92,22.08C527.7,403.97,508.5,414.35,493.46,406.1L493.46,406.1L493.46,406.1z"/>
	<path class="st6" d="M544.95,504.82H402.61c-0.08,5.03-0.14,9.07-0.14,10.82c0,38.5,18.56,63.17,42.31,73.99
		c9.18,4.18,19.11,6.28,29,6.28c9.89,0,19.82-2.09,29-6.28c23.76-10.82,42.32-35.49,42.32-73.99
		C545.1,513.77,545.03,509.77,544.95,504.82L544.95,504.82z"/>
	<path class="st7" d="M402.49,512.57c-0.02,1.33-0.03,2.38-0.03,3.07c0,0.82,0.01,1.63,0.03,2.44h142.58
		c0.02-0.81,0.03-1.62,0.03-2.44c0-0.72-0.01-1.77-0.03-3.07H402.49L402.49,512.57z"/>
	<path class="st7" d="M402.99,526.59c0.18,1.87,0.42,3.71,0.69,5.51h140.19c0.28-1.8,0.51-3.63,0.69-5.51H402.99L402.99,526.59z"/>
	<path class="st7" d="M405.39,540.6c0.47,1.88,1,3.72,1.58,5.51h133.62c0.58-1.79,1.1-3.62,1.58-5.51H405.39L405.39,540.6z"/>
	<path class="st7" d="M410.25,554.62c0.86,1.9,1.79,3.74,2.77,5.51h121.51c0.98-1.77,1.91-3.61,2.77-5.51H410.25L410.25,554.62z"/>
	<path class="st7" d="M418.56,568.63c1.47,1.94,3.02,3.77,4.64,5.51h101.15c1.62-1.73,3.17-3.57,4.64-5.51H418.56L418.56,568.63z"/>
	<path class="st7" d="M432.82,582.65c2.85,2.08,5.84,3.91,8.92,5.51h64.08c3.09-1.59,6.07-3.43,8.92-5.51H432.82L432.82,582.65z"/>
	<path class="st3" d="M557.38,227.79c24.59,23.69,39.8,56.42,39.8,92.57c0,35.05-15.22,59.1-32.04,85.67
		c-11.26,17.8-23.27,36.76-31.59,60.82c-1.58,4.57-1.57,22.33-1.33,37.98h12.47c-0.24-15.65-0.25-33.41,1.33-37.98
		c8.33-24.06,20.33-43.02,31.59-60.82c16.82-26.57,32.04-50.61,32.04-85.67c0-36.15-15.21-68.88-39.8-92.57
		c-24.59-23.69-58.55-38.34-96.07-38.34c-2.09,0-4.17,0.05-6.23,0.14C502.58,191.1,534.16,205.42,557.38,227.79L557.38,227.79z"/>
</g>
</svg>
