<?xml version="1.0" encoding="utf-8"?>
<!-- Generator: Adobe Illustrator 24.2.1, SVG Export Plug-In . SVG Version: 6.00 Build 0)  -->
<svg version="1.1" id="Layer_1" xmlns="http://www.w3.org/2000/svg" xmlns:xlink="http://www.w3.org/1999/xlink" x="0px" y="0px"
	 viewBox="0 0 167.33 123.83" style="enable-background:new 0 0 167.33 123.83;" xml:space="preserve">
<style type="text/css">
	.st0{fill:none;}
	.st1{fill:#FBB03B;}
	.st2{fill:#F7931E;}
	.st3{fill:#FFD97F;}
	.st4{fill:#CACBCD;}
	.st5{fill:#E2E3E4;}
	.st6{fill:#FFFFFF;}
	.st7{fill:#FFBA2A;}
	.st8{fill:#183249;}
	.st9{fill:#F9C58C;}
	.st10{fill:#FCD0A4;}
	.st11{fill:#2D1407;}
	.st12{fill:#7FAEFF;}
	.st13{fill:#BFDAFF;}
	.st14{fill:#242456;}
	.st15{opacity:0.75;fill:#F8F8D3;enable-background:new    ;}
	.st16{opacity:0.75;fill:#E9E9C7;enable-background:new    ;}
	.st17{fill:#92CBFF;}
	.st18{fill:#9FD5FF;}
	.st19{fill:#6A76FF;}
	.st20{fill:#DEDFE0;}
	.st21{fill:#231F20;}
	.st22{fill:#E6E6E6;}
	.st23{fill:#CCCCCC;}
	.st24{fill:#E6E7E8;}
	.st25{fill:#0088AE;}
	.st26{fill:#74D2FF;}
</style>
<g>
	<g transform="matrix(1, 0, 0, 1, -2.842170943040401e-14, 0)">
		<path class="st0" d="M0,0h167.33v123.83H0V0z"/>
	</g>
	<path class="st1" d="M51.41,100.79c-0.2-0.33-0.44-0.63-0.71-0.9c-0.91-0.92-2.11-1.4-3.36-1.37c-1.26,0.03-2.43,0.58-3.29,1.55
		c-1.51,1.68-1.73,4.2-0.54,6.14c0.2,0.33,0.44,0.63,0.71,0.9c0.91,0.92,2.11,1.4,3.36,1.37c1.26-0.03,2.43-0.59,3.29-1.55
		C52.38,105.25,52.6,102.72,51.41,100.79z M44.23,105.71c-0.97-1.58-0.79-3.64,0.44-5.01c0.71-0.79,1.66-1.24,2.69-1.26
		c1.03-0.03,2,0.37,2.75,1.12c0.22,0.22,0.42,0.47,0.58,0.73c0.97,1.58,0.79,3.64-0.44,5.01c-0.71,0.79-1.66,1.24-2.69,1.27
		c-1.03,0.03-2-0.37-2.75-1.12C44.59,106.23,44.39,105.98,44.23,105.71z"/>
	<path class="st1" d="M53.97,110.04c2.88-3.2,3.3-8.02,1.02-11.72c-0.38-0.62-0.84-1.2-1.35-1.71c-3.59-3.61-9.29-3.45-12.7,0.35
		c-2.23,2.48-3.02,6.05-2.08,9.32l-3,10.14l9.42-3.7C48.42,113.54,51.74,112.52,53.97,110.04z M39.72,106.41l0.04-0.14l-0.04-0.14
		c-0.91-3-0.21-6.27,1.84-8.55c1.49-1.66,3.51-2.61,5.68-2.67c2.17-0.06,4.23,0.78,5.8,2.35c0.46,0.47,0.87,0.99,1.22,1.55
		c2.06,3.34,1.68,7.7-0.92,10.59c-2.05,2.28-5.11,3.19-7.98,2.39l-0.13-0.04l-8.03,3.15L39.72,106.41z"/>
	<path class="st1" d="M38.83,64.28l-0.03-0.05c-2.13-3.74-5.86-6.18-9.96-6.52c-0.39-0.03-0.71-0.05-1.02-0.05
		c-0.31,0-0.63,0.02-1.02,0.05c-6.61,0.55-11.79,6.48-11.79,13.49c0,7.01,5.17,12.94,11.78,13.49l0.04,0
		c0.38,0.03,0.7,0.05,0.99,0.05c0.3,0,0.61-0.01,1.02-0.05c6.61-0.55,11.79-6.48,11.79-13.49C40.63,68.76,40.01,66.37,38.83,64.28z
		 M28.7,84.08l-0.08,0.01c-0.14,0.01-0.28,0.02-0.43,0.02l-0.1,0v-5.9h4.41l-0.06,0.14c-0.03,0.08-0.06,0.16-0.1,0.24L32.3,78.7
		c-0.04,0.1-0.08,0.2-0.13,0.3c-0.03,0.06-0.06,0.12-0.09,0.18l-0.18,0.36c-0.04,0.08-0.08,0.17-0.12,0.25
		c-0.05,0.09-0.1,0.18-0.15,0.27l-0.12,0.21c-0.05,0.1-0.11,0.19-0.16,0.29c-0.05,0.08-0.1,0.16-0.15,0.25l-0.14,0.22
		c-0.06,0.1-0.12,0.19-0.18,0.28c-0.06,0.09-0.12,0.18-0.18,0.27l-0.16,0.24c-0.05,0.08-0.1,0.15-0.16,0.23
		c-0.04,0.06-0.09,0.12-0.13,0.18l-0.19,0.24c-0.07,0.1-0.15,0.19-0.22,0.29c-0.05,0.06-0.1,0.12-0.15,0.18l-0.21,0.25
		c-0.07,0.08-0.14,0.17-0.21,0.25c-0.07,0.08-0.14,0.16-0.22,0.24l-0.06,0.06c-0.1,0.11-0.19,0.21-0.29,0.31L28.7,84.08z
		 M29.75,83.77l0.06-0.08c0.38-0.44,0.7-0.85,1.01-1.27c0.3-0.41,0.58-0.84,0.87-1.32c0.01-0.03,0.03-0.05,0.05-0.08l0.03-0.05
		c0.25-0.42,0.49-0.87,0.71-1.34l0.1-0.2c0.18-0.38,0.35-0.77,0.5-1.15l0.02-0.06h4.99l-0.1,0.16c-1.9,2.96-4.87,4.99-8.15,5.57
		l-0.28,0.05L29.75,83.77z M33.82,71.74c0,0.14-0.01,0.28-0.01,0.41c0,0.07-0.01,0.13-0.01,0.2l-0.02,0.23
		c-0.01,0.16-0.02,0.32-0.04,0.47c-0.01,0.09-0.02,0.17-0.03,0.26l-0.03,0.3c-0.01,0.11-0.02,0.23-0.04,0.34
		c-0.01,0.06-0.02,0.12-0.03,0.18l-0.06,0.37c-0.02,0.12-0.04,0.23-0.06,0.34c-0.02,0.09-0.04,0.19-0.06,0.28l-0.06,0.29
		c-0.02,0.1-0.04,0.2-0.07,0.3c-0.02,0.09-0.04,0.17-0.07,0.26l-0.07,0.24c-0.03,0.12-0.06,0.24-0.1,0.36
		c-0.03,0.1-0.06,0.19-0.09,0.29l-0.07,0.23c-0.03,0.11-0.07,0.22-0.11,0.33c-0.02,0.05-0.03,0.09-0.05,0.14l-0.06,0.15h-4.62v-6.19
		h5.74L33.82,71.74z M33.37,77.57c0.11-0.32,0.22-0.67,0.33-1.08c0.02-0.05,0.06-0.24,0.06-0.24c0.13-0.51,0.24-0.99,0.33-1.46
		l0.04-0.22c0.09-0.55,0.16-1.05,0.2-1.54c0-0.04,0.01-0.07,0.01-0.11l0-0.03c0.03-0.41,0.06-0.84,0.06-1.27l0-0.1h5.67l0,0.11
		c-0.06,2.12-0.62,4.2-1.62,6.03l-0.03,0.05h-5.1L33.37,77.57z M33.09,64.19l-0.02-0.06c-0.01-0.02-0.02-0.05-0.03-0.07
		C33.02,64.03,33.01,64,33,63.98c-0.19-0.46-0.37-0.87-0.55-1.25l-0.05-0.11c-0.19-0.39-0.41-0.8-0.68-1.25
		c-0.04-0.07-0.15-0.25-0.15-0.25c-0.26-0.43-0.52-0.81-0.77-1.16l-0.14-0.18c-0.27-0.36-0.55-0.72-0.85-1.06
		c-0.01-0.01-0.02-0.03-0.04-0.05l-0.21-0.25l0.28,0.05c3.32,0.58,6.3,2.61,8.19,5.57l0.1,0.16L33.09,64.19L33.09,64.19z
		 M30.77,60.91l0.05,0.08c0.02,0.03,0.04,0.06,0.05,0.08c0.26,0.4,0.51,0.82,0.76,1.29l0.04,0.07c0.03,0.05,0.06,0.11,0.09,0.16
		c0.22,0.43,0.43,0.89,0.63,1.34l0.11,0.25h-4.41v-5.9l0.1,0c0.15,0,0.31,0.01,0.48,0.03l0.03,0l0.09,0.1
		c0.39,0.41,0.73,0.79,1.04,1.18l0.03,0.04C30.15,60.01,30.45,60.42,30.77,60.91z M33.18,66.22c0.08,0.29,0.14,0.6,0.2,0.84
		l0.02,0.11c0.02,0.08,0.04,0.17,0.06,0.25l0,0.02c0.03,0.13,0.06,0.26,0.08,0.39c0.06,0.33,0.1,0.69,0.13,0.97l0.01,0.11
		c0.01,0.05,0.01,0.1,0.02,0.15l0.01,0.06c0.02,0.12,0.03,0.24,0.04,0.35c0.04,0.44,0.05,0.9,0.06,1.29l0,0.1h-5.73v-6.19h4.6
		l0.02,0.06c0.08,0.21,0.15,0.43,0.21,0.64l0.11,0.35C33.08,65.9,33.13,66.06,33.18,66.22z M34.03,67.4
		c-0.02-0.08-0.07-0.31-0.07-0.31c-0.06-0.29-0.13-0.62-0.21-0.93c-0.04-0.16-0.09-0.32-0.14-0.48l-0.06-0.18
		c-0.03-0.09-0.05-0.17-0.08-0.26c-0.04-0.13-0.08-0.27-0.12-0.4l-0.05-0.14h5.13l0.03,0.05c0.99,1.82,1.55,3.91,1.6,6.03l0,0.11
		H34.4l0-0.1c-0.01-0.36-0.02-0.84-0.06-1.31c-0.01-0.1-0.02-0.19-0.04-0.3c-0.01-0.08-0.02-0.16-0.03-0.26
		c-0.04-0.37-0.09-0.75-0.15-1.11C34.09,67.66,34.06,67.53,34.03,67.4z M22.59,78.21l0.02,0.06c0.15,0.38,0.31,0.77,0.5,1.15
		l0.1,0.2c0.23,0.47,0.47,0.92,0.71,1.34l0.03,0.05c0.01,0.02,0.03,0.05,0.04,0.07c0.28,0.47,0.58,0.92,0.88,1.34
		c0.3,0.41,0.63,0.83,1,1.26c0.01,0.01,0.02,0.02,0.03,0.04l0.22,0.26l-0.28-0.05c-3.28-0.57-6.26-2.6-8.15-5.57l-0.1-0.16
		L22.59,78.21L22.59,78.21z M25.84,82.76c-0.08-0.11-0.16-0.21-0.24-0.32l-0.12-0.16c-0.06-0.07-0.12-0.15-0.17-0.23
		c-0.09-0.12-0.17-0.24-0.25-0.37l-0.07-0.1c-0.06-0.09-0.12-0.18-0.18-0.27c-0.05-0.07-0.09-0.15-0.14-0.23l-0.17-0.28
		c-0.05-0.08-0.1-0.16-0.15-0.24c-0.06-0.1-0.11-0.19-0.16-0.29l-0.12-0.22c-0.05-0.09-0.1-0.18-0.14-0.27
		c-0.05-0.1-0.1-0.2-0.14-0.29l-0.1-0.22c-0.05-0.1-0.09-0.19-0.14-0.29c-0.05-0.1-0.09-0.2-0.13-0.3l-0.1-0.23
		c-0.02-0.04-0.03-0.07-0.05-0.11l-0.06-0.14h4.42v5.9l-0.1,0c-0.14,0-0.28-0.01-0.43-0.02L27,84.08l-0.03-0.03
		c-0.1-0.1-0.19-0.21-0.29-0.31l-0.09-0.1c-0.06-0.07-0.12-0.13-0.18-0.2c-0.06-0.07-0.42-0.5-0.42-0.5
		C25.94,82.89,25.89,82.83,25.84,82.76z M21.27,71.52l0,0.1c0.01,0.44,0.03,0.86,0.06,1.27c0,0.03,0.01,0.15,0.01,0.15
		c0.04,0.48,0.11,0.99,0.2,1.53l0.02,0.12c0.01,0.03,0.01,0.07,0.02,0.1c0.08,0.47,0.19,0.94,0.32,1.46c0,0,0.05,0.17,0.06,0.24
		c0.12,0.41,0.22,0.76,0.33,1.08l0.05,0.14h-5.1l-0.03-0.05c-1-1.83-1.56-3.91-1.63-6.03l0-0.11L21.27,71.52L21.27,71.52z
		 M22.62,76.57c-0.03-0.1-0.05-0.19-0.08-0.29l-0.08-0.3c-0.02-0.09-0.05-0.18-0.07-0.27c-0.03-0.1-0.05-0.21-0.07-0.31l-0.07-0.32
		c-0.02-0.08-0.04-0.16-0.05-0.24c-0.02-0.13-0.05-0.26-0.07-0.39l-0.04-0.22c-0.02-0.09-0.03-0.18-0.04-0.27
		c-0.02-0.12-0.03-0.23-0.04-0.35l-0.04-0.3c-0.01-0.08-0.02-0.17-0.03-0.25c-0.02-0.17-0.03-0.33-0.04-0.51l-0.01-0.19
		c-0.01-0.07-0.01-0.14-0.01-0.21c0-0.11-0.01-0.21-0.01-0.32l-0.01-0.31h5.74v6.19H23l-0.04-0.11c-0.02-0.06-0.05-0.12-0.07-0.19
		c-0.02-0.07-0.05-0.14-0.07-0.22l-0.11-0.36C22.67,76.75,22.64,76.66,22.62,76.57z M22.3,64.83c-0.04,0.13-0.08,0.26-0.12,0.38
		l-0.02,0.06c-0.02,0.07-0.04,0.15-0.06,0.22l-0.06,0.21c-0.05,0.15-0.09,0.3-0.14,0.46c-0.09,0.33-0.16,0.68-0.23,0.98l-0.05,0.23
		c-0.03,0.15-0.06,0.29-0.09,0.43c-0.07,0.38-0.11,0.77-0.15,1.13c-0.01,0.08-0.02,0.15-0.03,0.23c-0.02,0.11-0.03,0.21-0.04,0.31
		c-0.04,0.45-0.05,0.92-0.06,1.31l0,0.1h-5.68l0-0.11c0.06-2.12,0.62-4.21,1.62-6.04l0.03-0.05h5.11L22.3,64.83z M21.88,70.78
		c0.01-0.4,0.02-0.85,0.06-1.29c0.01-0.11,0.03-0.22,0.04-0.34c0.01-0.08,0.02-0.15,0.03-0.23l0.02-0.15
		c0.04-0.31,0.07-0.62,0.13-0.93c0.03-0.15,0.06-0.3,0.1-0.46l0.09-0.41c0.05-0.25,0.11-0.51,0.17-0.76
		c0.04-0.16,0.09-0.31,0.15-0.47l0.11-0.34c0.07-0.22,0.14-0.44,0.21-0.65l0.02-0.07h4.6v6.19h-5.73L21.88,70.78z M25.91,58.64
		l-0.05,0.06c-0.29,0.33-0.57,0.68-0.85,1.07c0,0-0.11,0.14-0.13,0.18c-0.28,0.38-0.54,0.78-0.78,1.17
		c-0.05,0.08-0.1,0.16-0.14,0.24c-0.26,0.44-0.49,0.85-0.69,1.26l-0.02,0.04c-0.01,0.02-0.02,0.04-0.03,0.05
		c-0.19,0.4-0.38,0.83-0.56,1.27c-0.01,0.03-0.02,0.05-0.04,0.09l-0.01,0.02c-0.01,0.01-0.01,0.03-0.02,0.04l-0.02,0.06h-5.01
		l0.1-0.16c1.9-2.96,4.87-4.99,8.17-5.57l0.28-0.05L25.91,58.64z M23.31,63.93c0.19-0.46,0.4-0.91,0.63-1.35l0.12-0.22
		c0.25-0.47,0.5-0.9,0.76-1.29l0.11-0.16c0.31-0.46,0.61-0.88,0.92-1.28l0.02-0.03c0.31-0.39,0.65-0.78,1.04-1.18
		c0,0,0.05-0.06,0.07-0.07L27,58.32l0.03,0c0.16-0.01,0.32-0.02,0.47-0.03l0.1,0v5.9h-4.4C23.25,64.08,23.3,63.95,23.31,63.93z"/>
	<path class="st1" d="M36.32,44.69c-0.73,0-1.47-0.07-2.2-0.22l-0.36-0.07l0.06-0.38c0.23-1.47-0.44-2.93-1.68-3.64
		c-0.49-0.28-1.03-0.43-1.58-0.43c-0.82,0-1.61,0.32-2.22,0.9l-0.27,0.26l-0.25-0.28c-0.74-0.82-1.36-1.74-1.86-2.74l-0.17-0.35
		l0.32-0.19c0.56-0.32,1.02-0.8,1.33-1.4c0.42-0.82,0.52-1.77,0.27-2.67c-0.25-0.9-0.81-1.64-1.59-2.09
		c-0.35-0.2-0.72-0.33-1.1-0.39l-0.37-0.06l0.05-0.39c0.15-1.13,0.45-2.24,0.89-3.3l0.15-0.35l0.34,0.14
		c0.4,0.17,0.82,0.26,1.25,0.26c1.22,0,2.33-0.7,2.91-1.82c0.55-1.06,0.54-2.31-0.01-3.37l-0.18-0.34l0.31-0.19
		c0.91-0.57,1.9-1,2.94-1.3l0.35-0.1l0.1,0.37c0.25,0.89,0.82,1.63,1.59,2.08c0.49,0.28,1.04,0.43,1.59,0.43
		c1.21,0,2.33-0.7,2.91-1.83c0.05-0.11,0.11-0.22,0.16-0.35l0.14-0.35l0.34,0.13c0.51,0.2,0.99,0.43,1.48,0.71
		c0.49,0.28,0.94,0.6,1.37,0.93l0.29,0.23l-0.21,0.31c-0.07,0.1-0.14,0.21-0.2,0.33c-0.42,0.82-0.52,1.77-0.27,2.66
		c0.25,0.9,0.81,1.64,1.59,2.09c0.76,0.44,1.68,0.54,2.51,0.29l0.35-0.11l0.11,0.36c0.33,1.07,0.51,2.18,0.56,3.31l0.01,0.38
		l-0.36,0.03c-1.14,0.08-2.15,0.76-2.69,1.81c-0.81,1.57-0.38,3.52,1,4.54l0.3,0.22l-0.2,0.32c-0.6,0.96-1.32,1.83-2.14,2.57
		l-0.28,0.25l-0.24-0.29c-0.26-0.3-0.55-0.55-0.89-0.75c-0.48-0.28-1.03-0.43-1.58-0.43c-1.22,0-2.33,0.7-2.91,1.82
		c-0.3,0.59-0.44,1.25-0.39,1.92l0.03,0.39l-0.37,0.03C37,44.68,36.66,44.69,36.32,44.69z M34.6,43.76
		c0.77,0.13,1.55,0.17,2.33,0.13c0.01-0.68,0.18-1.35,0.49-1.96c0.71-1.38,2.08-2.24,3.57-2.24c0.67,0,1.35,0.18,1.94,0.52
		c0.3,0.17,0.57,0.39,0.82,0.63c0.57-0.56,1.09-1.18,1.54-1.86c-1.46-1.3-1.87-3.52-0.94-5.33c0.61-1.18,1.69-1.97,2.93-2.18
		c-0.06-0.81-0.19-1.61-0.4-2.38c-0.92,0.19-1.89,0.03-2.72-0.45c-0.95-0.55-1.64-1.46-1.95-2.56c-0.31-1.1-0.19-2.26,0.33-3.27
		c0.01-0.02,0.03-0.05,0.04-0.07c-0.32-0.23-0.65-0.45-1-0.66c-0.35-0.2-0.7-0.38-1.06-0.53c-0.01,0.02-0.02,0.05-0.03,0.07
		c-0.72,1.38-2.08,2.24-3.57,2.24c-0.67,0-1.35-0.18-1.94-0.52c-0.84-0.48-1.47-1.25-1.82-2.18c-0.74,0.23-1.45,0.55-2.12,0.93
		c0.51,1.21,0.45,2.6-0.16,3.78c-0.71,1.38-2.08,2.23-3.56,2.23c-0.4,0-0.8-0.06-1.18-0.19c-0.3,0.78-0.51,1.57-0.65,2.39
		c0.34,0.09,0.66,0.22,0.98,0.4c0.95,0.55,1.65,1.46,1.95,2.56c0.31,1.1,0.19,2.26-0.33,3.27c-0.32,0.61-0.77,1.13-1.31,1.51
		c0.38,0.7,0.83,1.36,1.34,1.97c0.7-0.55,1.55-0.86,2.43-0.86c0.67,0,1.35,0.18,1.94,0.53C33.91,40.5,34.72,42.1,34.6,43.76z
		 M36.32,39.08c-1.07,0-2.13-0.29-3.07-0.83c-1.51-0.87-2.6-2.31-3.08-4.05c-0.48-1.74-0.3-3.58,0.53-5.17
		c1.13-2.18,3.29-3.53,5.64-3.53c1.07,0,2.13,0.29,3.08,0.83c3.1,1.8,4.25,5.93,2.56,9.21C40.84,37.72,38.67,39.08,36.32,39.08z
		 M36.33,26.29c-2.08,0-3.99,1.2-4.98,3.12c-0.73,1.41-0.89,3.03-0.47,4.57c0.43,1.54,1.39,2.81,2.72,3.58
		c0.83,0.48,1.77,0.74,2.72,0.74c2.08,0,3.99-1.2,4.98-3.13c1.5-2.9,0.48-6.55-2.26-8.14C38.22,26.54,37.28,26.29,36.33,26.29z"/>
	<path class="st1" d="M19.29,53.28c-0.56,0-1.12-0.06-1.67-0.18l-0.36-0.08l0.07-0.38c0.16-0.96-0.26-1.93-1.06-2.41
		c-0.33-0.2-0.7-0.3-1.07-0.3c-0.53,0-1.04,0.2-1.43,0.57l-0.27,0.25l-0.25-0.28c-0.51-0.58-0.94-1.23-1.27-1.94l-0.17-0.35
		L12.13,48c0.37-0.2,0.68-0.52,0.89-0.9c0.29-0.53,0.36-1.15,0.2-1.75c-0.15-0.59-0.52-1.08-1.02-1.39
		c-0.22-0.13-0.46-0.22-0.72-0.27l-0.36-0.06l0.06-0.38c0.12-0.79,0.34-1.57,0.66-2.3l0.15-0.35l0.33,0.15
		c0.27,0.12,0.56,0.18,0.85,0.18c0.78,0,1.51-0.45,1.89-1.16c0.37-0.69,0.38-1.51,0.03-2.21l-0.17-0.34l0.31-0.19
		c0.64-0.39,1.33-0.68,2.07-0.87l0.35-0.09l0.1,0.37c0.16,0.59,0.52,1.08,1.02,1.38c0.33,0.2,0.7,0.3,1.07,0.3
		c0.78,0,1.51-0.45,1.89-1.16c0.04-0.07,0.07-0.14,0.11-0.23l0.14-0.36l0.34,0.15c0.34,0.15,0.69,0.32,1.02,0.51
		c0.32,0.2,0.63,0.41,0.95,0.67l0.29,0.23l-0.21,0.31c-0.05,0.08-0.1,0.15-0.13,0.22c-0.29,0.54-0.36,1.16-0.2,1.75
		c0.15,0.59,0.52,1.08,1.02,1.38c0.5,0.3,1.09,0.38,1.64,0.22l0.35-0.1l0.1,0.37c0.22,0.76,0.33,1.54,0.35,2.33l0.01,0.39
		l-0.36,0.02c-0.74,0.04-1.41,0.47-1.78,1.16c-0.55,1.02-0.28,2.3,0.61,2.99l0.3,0.23l-0.21,0.32c-0.43,0.67-0.94,1.26-1.52,1.77
		l-0.28,0.25l-0.24-0.29c-0.17-0.2-0.36-0.37-0.57-0.5c-0.33-0.2-0.7-0.3-1.07-0.3c-0.78,0-1.51,0.45-1.89,1.16
		c-0.2,0.38-0.3,0.81-0.28,1.25l0.02,0.39l-0.37,0.03C19.68,53.27,19.48,53.28,19.29,53.28z M18.1,52.39
		c0.46,0.08,0.91,0.11,1.37,0.1c0.03-0.45,0.16-0.89,0.37-1.29c0.52-0.97,1.49-1.56,2.54-1.56c0.5,0,1,0.14,1.44,0.4
		c0.18,0.11,0.35,0.24,0.5,0.39c0.34-0.33,0.65-0.69,0.93-1.08c-0.97-0.96-1.21-2.51-0.54-3.77c0.44-0.81,1.18-1.35,2.02-1.51
		c-0.03-0.48-0.1-0.95-0.21-1.41c-0.63,0.09-1.29-0.04-1.84-0.38c-0.68-0.4-1.16-1.06-1.37-1.86c-0.2-0.78-0.12-1.6,0.25-2.3
		c-0.2-0.14-0.39-0.28-0.59-0.4c-0.2-0.12-0.41-0.23-0.62-0.33c-0.52,0.94-1.48,1.52-2.51,1.52c-0.5,0-1-0.14-1.44-0.4
		c-0.57-0.34-1-0.86-1.25-1.48c-0.44,0.14-0.86,0.31-1.26,0.53c0.31,0.85,0.24,1.8-0.19,2.61c-0.52,0.96-1.49,1.56-2.54,1.56
		c-0.27,0-0.54-0.04-0.79-0.12c-0.18,0.45-0.31,0.92-0.4,1.4c0.21,0.07,0.41,0.16,0.6,0.27c0.68,0.4,1.17,1.07,1.37,1.86
		c0.21,0.8,0.11,1.63-0.27,2.35c-0.22,0.4-0.51,0.74-0.87,1.01c0.22,0.41,0.48,0.81,0.77,1.17c0.48-0.34,1.05-0.52,1.63-0.52
		c0.5,0,1,0.14,1.44,0.4C17.6,50.12,18.16,51.23,18.1,52.39z M19.29,49.4c-0.78,0-1.56-0.22-2.24-0.63
		c-1.06-0.63-1.82-1.67-2.14-2.9c-0.32-1.24-0.17-2.54,0.43-3.65c0.81-1.5,2.32-2.44,3.96-2.44c0.78,0,1.56,0.22,2.24,0.63
		c2.18,1.31,2.95,4.25,1.71,6.56C22.44,48.46,20.92,49.4,19.29,49.4z M19.3,40.57c-1.37,0-2.64,0.78-3.31,2.04
		c-0.5,0.93-0.63,2.02-0.36,3.05c0.27,1.04,0.91,1.9,1.79,2.43c0.57,0.34,1.22,0.52,1.87,0.52c1.37,0,2.64-0.78,3.31-2.04
		c1.03-1.93,0.39-4.39-1.43-5.48C20.6,40.75,19.95,40.57,19.3,40.57z"/>
	<path class="st2" d="M139.72,104.38l0-0.77h0.2c3.28-0.04,5.95-2.91,5.95-6.37c0-2.47-1.31-4.68-3.43-5.77l-0.31-0.16l0.15-0.33
		c0.18-0.39,0.26-0.81,0.26-1.23c0-1.6-1.23-2.9-2.74-2.9c-0.48,0-0.96,0.14-1.38,0.4l-0.25,0.16l-0.19-0.23
		c-1.62-2.01-3.98-3.16-6.47-3.16c-3.98,0-7.38,2.86-8.29,6.95l-0.04,0.19L123,91.22c-2.38,0.93-3.97,3.34-3.97,6.01
		c0,3.54,6.07,6.5,6.07,6.5h0.05v0.63h-0.05c-3.73,0.01-6.76-3.19-6.76-7.13c0-2.88,1.63-5.46,4.14-6.58l0.11-0.05l0.03-0.12
		c1.07-4.24,4.73-7.2,8.89-7.2c2.52,0,4.96,1.11,6.7,3.06l0.12,0.13l0.16-0.07c0.43-0.19,0.87-0.28,1.33-0.28
		c1.89,0,3.43,1.63,3.43,3.63c0,0.35-0.05,0.69-0.14,1.03l-0.05,0.19l0.17,0.1c2.1,1.29,3.35,3.6,3.35,6.17
		c0,3.61-2.66,6.73-6.06,7.1l-0.3,0.02v0.01l-0.27,0.13h-0.21V104.38z"/>
	<path class="st2" d="M136.12,98.43h-7.27c-1.46,0-2.64,1.25-2.64,2.79v0.9v5.89v0.9c0,1.54,1.18,2.79,2.64,2.79h7.27
		c1.46,0,2.64-1.25,2.64-2.79v-0.9v-5.89v-0.9C138.76,99.68,137.58,98.43,136.12,98.43z M126.93,102.98h11v4.17h-11V102.98z
		 M137.93,108.94c0,1.1-0.83,2-1.86,2h-7.28c-1.02,0-1.85-0.88-1.85-1.96v-0.95h11L137.93,108.94L137.93,108.94z M126.93,102.22
		v-0.95c0-1.08,0.83-1.96,1.85-1.96h7.29c1.02,0,1.85,0.88,1.85,1.96v0.95H126.93z"/>
	<path class="st2" d="M128.49,99.19v-2.96c0-2.48,1.92-4.47,4.26-4.32c2.09,0.14,3.75,1.98,3.75,4.23v3.04h0.72v-2.96
		c0-2.6-1.83-4.84-4.27-5.11c-2.86-0.32-5.29,2.06-5.29,5.02v3.04H128.49z"/>
	<g transform="matrix(1, 0, 0, 1, -5.684341886080802e-14, 0)">
		<path class="st2" d="M133.97,42.75c-2.47,0-4.49-0.79-4.72-0.88l-0.93-0.39l0.86-0.54c1.51-0.94,2.74-3.33,3.47-6.72l0.04-0.19
			l-0.1-0.16c-1.6-2.43-2.45-5.24-2.45-8.13c0-8.36,7.05-15.15,15.72-15.15c8.67,0,15.72,6.8,15.72,15.15
			c0,8.36-7.05,15.16-15.72,15.16c-1.76,0-3.5-0.28-5.16-0.84l-0.24-0.08l-0.18,0.19C138.72,41.86,136.54,42.75,133.97,42.75z
			 M133.69,34.01c-0.4,2.04-1.2,4.85-2.71,6.65l-0.47,0.56l0.69,0.16c0.95,0.22,1.87,0.33,2.76,0.33c2.55,0,4.55-0.9,5.95-2.68
			l0.22-0.28l0.32,0.12c1.72,0.65,3.54,0.98,5.4,0.98c8.13,0,14.74-6.33,14.74-14.12c0-7.79-6.61-14.12-14.74-14.12
			c-8.13,0-14.74,6.33-14.74,14.12c0,2.81,0.86,5.53,2.49,7.86l0.13,0.19L133.69,34.01z"/>
	</g>
	<path class="st2" d="M137.76,28.62c-1.02,0-1.84-0.87-1.84-1.95c0-1.08,0.83-1.95,1.84-1.95c1.02,0,1.85,0.88,1.85,1.95
		C139.61,27.74,138.78,28.62,137.76,28.62z"/>
	<path class="st2" d="M145.67,28.62c-1.02,0-1.85-0.87-1.85-1.95c0-1.08,0.83-1.95,1.85-1.95c1.02,0,1.84,0.88,1.84,1.95
		C147.52,27.74,146.69,28.62,145.67,28.62z"/>
	<path class="st2" d="M153.58,28.62c-1.02,0-1.85-0.87-1.85-1.95c0-1.08,0.83-1.95,1.85-1.95c1.02,0,1.85,0.88,1.85,1.95
		C155.43,27.74,154.6,28.62,153.58,28.62z"/>
	<path class="st3" d="M132.45,61.94c0,28.33-21.72,51.29-48.52,51.29h0c-26.8,0-48.52-22.97-48.52-51.29v0
		c0-28.33,21.72-51.29,48.52-51.29C110.72,10.64,132.45,33.61,132.45,61.94L132.45,61.94z"/>
	<path class="st4" d="M90.82,92.87H77.5l1.76-11.25h9.79L90.82,92.87z"/>
	<path class="st5" d="M99.44,94.13c0-1.26-0.96-2.27-2.15-2.27h-27.1c-1.21,0-2.19,1.03-2.19,2.31v0.34h31.43L99.44,94.13
		L99.44,94.13z"/>
	<path class="st6" d="M68.01,94.51v1.35c0,1.28,0.98,2.31,2.19,2.31h27.06c1.21,0,2.19-1.03,2.19-2.31v-1.35H68.01z"/>
	<path class="st6" d="M126.57,79.73c0,1.26-0.96,2.27-2.15,2.27H42.94c-1.21,0-2.19-1.03-2.19-2.31V23.03
		c0-1.28,0.98-2.31,2.19-2.31h81.44c1.21,0,2.19,1.03,2.19,2.31L126.57,79.73L126.57,79.73z"/>
	<path class="st5" d="M42.55,74.67V23c0-0.21,0.16-0.39,0.36-0.39h81.5c0.2,0,0.36,0.17,0.36,0.38v51.67c0,0.21-0.16,0.39-0.36,0.39
		h-81.5C42.71,75.05,42.55,74.88,42.55,74.67z"/>
	<path class="st7" d="M44.22,24.39h78.88v48.9H44.22V24.39z"/>
	<path class="st8" d="M102.67,73.29L102.67,73.29c0.49-9.84-2.07-15.81-2.07-15.81c-1.51-2.03-5.16-2.75-5.16-2.75
		c-2.74-0.91-5.23-1.95-6.08-2.56c-0.78,0.95-1.72,2.19-3.52,2.88c0,0-0.04-1.29-0.86-2.78l-0.82-0.29l-0.82,0.29
		c-0.82,1.5-0.55,2.85-0.55,2.85c-1.8-0.69-3.06-1.99-3.84-2.94c-0.85,0.61-3.33,1.65-6.08,2.56c0,0-3.65,0.72-5.16,2.75
		c0,0-2.07,1.81-2.07,15.8v0.01H102.67z"/>
	<path class="st9" d="M88.45,50.78v-2.6l-4.3-2l-4.3,2v2.6l4.3,1.4L88.45,50.78z"/>
	<path class="st10" d="M91.03,38.35c0,0,1.16-7.31-1.25-9.13c0,0-1.74-2-5.66-1.64c-3.92-0.36-5.66,1.64-5.66,1.64
		c-2.41,1.82-1.25,9.13-1.25,9.13c-1.5-0.82-1.42,1.09-1.42,1.09c-0.13,3.82,2.1,4.45,2.1,4.45c0.95,5.95,6.22,6.89,6.22,6.89
		s5.27-0.95,6.22-6.89c0,0,2.23-0.63,2.1-4.45C92.45,39.44,92.54,37.54,91.03,38.35z"/>
	<path class="st6" d="M88.45,50.79l-4.32,1.41l-4.32-1.41l-0.89,1.41c0,0,0.14,0.2,0.39,0.51c0.63,0.77,1.95,2.21,3.41,2.77
		c0,0,0.07-1.44,0.74-2.65l0.66-0.23l0.66,0.23c0.66,1.21,0.74,2.65,0.74,2.65c1.46-0.56,2.78-2,3.41-2.77
		c0.25-0.3,0.39-0.51,0.39-0.51L88.45,50.79z"/>
	<path class="st11" d="M76.91,39.64c0,0-2.62-6.48,1.76-10.82c0,0-0.22-0.7-1.51-0.69c-1.3,0,2.26-0.11,2.26-0.11l-0.06-1.35
		l1.49,0.93c0,0,3.2-1.98,7.8,0.1l0.36-0.61c0,0,4.9,3.01,2.08,11.83c0,0-0.12-5.03-1.81-6.6c0,0-4.63,1.11-7.42-0.29
		c0,0-3.74-0.18-4.06,2.83C77.81,34.86,78,39.23,76.91,39.64z"/>
	<path class="st6" d="M85.39,63.65c0,4.84-0.55,8.76-1.23,8.76c-0.68,0-1.23-3.92-1.23-8.76c0-4.84,0.55-8.76,1.23-8.76
		C84.84,54.9,85.39,58.82,85.39,63.65z"/>
	<path class="st12" d="M139.73,28.3h-33.24c-2.97,0-5.37,2.54-5.37,5.68v17.96c0,3.14,2.4,5.68,5.37,5.68h0.01v6.3l7.95-6.3h25.29
		c2.97,0,5.37-2.54,5.37-5.68V33.98C145.1,30.84,142.69,28.3,139.73,28.3z"/>
	<path class="st13" d="M106.02,36.77h34.18v2.02h-34.18V36.77z"/>
	<path class="st13" d="M106.02,42.33h34.18v2.02h-34.18V42.33z"/>
	<path class="st13" d="M106.02,48.01h34.18v2.02h-34.18V48.01z"/>
	<path class="st14" d="M70.01,43.59l-3.35-5.76c1.03-2.25,1.61-4.76,1.63-7.42c0.07-9.61-7.34-17.52-16.43-17.53
		c-9.09-0.01-16.47,7.79-16.46,17.4c0.01,9.66,7.56,17.51,16.69,17.37c3.93-0.06,7.52-1.58,10.32-4.06H70.01z"/>
	<g transform="matrix(1, 0, 0, 1, -8.526512829121202e-14, 0)">
		<path class="st6" d="M57.68,30.46c-0.13-3.01-1.61-4.46-2.82-5.14c-1.34-0.75-2.97-0.81-2.97-0.81h-0.08c0,0-1.63,0.05-2.97,0.81
			c-1.21,0.68-2.69,2.13-2.82,5.13c0,0.13-0.05,3.17,2.53,5.28l0.51,2.49c0.02,0.11,0.11,0.19,0.22,0.19h0.09v0.47l-0.4,0.16
			c-0.09,0.04-0.08,0.22-0.08,0.22v0.24c0,0-0.04,0.12,0,0.17l0.42,0.45l-0.34,0.14c-0.09,0.03-0.08,0.22-0.08,0.22v0.28
			c0,0.06,0.02,0.12,0.06,0.16l0.46,0.48c0.01,0.79,0.53,1.47,1.26,1.66l0.01,0v0.37c0,0.57,0.34,1.09,0.85,1.26
			c0.86,0.29,1.66-0.39,1.66-1.26v-0.33c0.76-0.19,1.31-0.91,1.31-1.75v-0.37l0.38-0.49c0.04-0.04,0.1-0.17,0.1-0.17v-0.24
			c0,0-0.09-0.19-0.17-0.22l-0.34-0.14l0.42-0.45c0.04-0.04,0.07-0.11,0.1-0.17v-0.24c-0.03-0.1-0.09-0.19-0.17-0.22l-0.31-0.16
			v-0.07h-0.08c0.11-0.01,0.2-0.08,0.22-0.19l0.51-2.49C57.73,33.62,57.68,30.59,57.68,30.46z M54.02,39.61V40
			c0,0.02,0.01,0.05,0.04,0.05l0.49,0.2l-0.51,0.54c-0.01,0.01-0.02,0.03-0.02,0.04v1.55c0,0.18-0.14,0.32-0.3,0.32h-2.64
			c-0.09,0-0.19-0.01-0.29-0.04c-0.56-0.14-0.95-0.67-0.95-1.28v-0.14c0-0.02-0.01-0.03-0.02-0.04l-0.51-0.54l0.49-0.2
			c0.02-0.01,0.03-0.03,0.03-0.05v-0.32c0-0.06-0.02-0.13-0.07-0.17l-0.46-0.49l0.38-0.16c0.09-0.04,0.14-0.12,0.14-0.22v-0.65h4.18
			v0.36c0,0.02,0.01,0.05,0.03,0.05l0.49,0.2l-0.51,0.54C54.03,39.58,54.02,39.59,54.02,39.61z M53.78,32.63
			c0.02-0.13-0.07-0.25-0.2-0.27l-0.02,0c-0.11,0-0.21,0.09-0.22,0.21l-0.65,5.34h-1.6l-0.65-5.34c-0.01-0.12-0.11-0.21-0.24-0.21
			l-0.01,0c-0.06,0.01-0.11,0.04-0.15,0.09c-0.04,0.05-0.05,0.11-0.04,0.17l0.64,5.28h-1.17l-0.48-2.38
			c-0.01-0.06-0.04-0.11-0.08-0.14c-2.46-1.96-2.41-4.8-2.41-4.92c0.12-2.77,1.47-4.09,2.57-4.72c1.24-0.7,2.51-0.73,2.75-0.73h0.07
			c0.24,0,1.51,0.04,2.75,0.73c1.11,0.62,2.45,1.95,2.58,4.72c0,0.12,0.05,2.95-2.41,4.91c-0.04,0.03-0.07,0.08-0.08,0.14
			l-0.48,2.38h-1.1L53.78,32.63z M51.16,43.37v-0.28h1.55v0.31c0,0.51-0.45,0.92-0.95,0.8C51.4,44.11,51.16,43.76,51.16,43.37z"/>
		<path class="st6" d="M54.48,32.07c0.06,0,0.12-0.03,0.16-0.07c0.04-0.05,0.07-0.11,0.07-0.18c0-0.07-0.02-0.13-0.07-0.18
			l-1.18-1.32c-0.08-0.09-0.23-0.1-0.32,0l-0.69,0.77h-1.21l-0.69-0.77c-0.08-0.09-0.24-0.09-0.32,0l-1.18,1.32
			C49.02,31.68,49,31.75,49,31.81c0,0.07,0.02,0.13,0.07,0.18c0.08,0.1,0.23,0.1,0.32,0l1.02-1.15l0.59,0.67
			c0.04,0.05,0.1,0.07,0.16,0.07h1.4c0.06,0,0.12-0.03,0.16-0.07l0.59-0.67l1.02,1.15C54.36,32.04,54.42,32.07,54.48,32.07z"/>
	</g>
	<path class="st6" d="M51.51,22.04v-4.22c0-0.17,0.11-0.32,0.27-0.34c0.18-0.02,0.33,0.13,0.33,0.31v4.26
		c0,0.18-0.15,0.33-0.33,0.31C51.63,22.37,51.51,22.21,51.51,22.04z"/>
	<path class="st6" d="M47.37,23.99c-0.09,0-0.19-0.05-0.25-0.13l-2.44-3.55c-0.1-0.15-0.07-0.35,0.07-0.45
		c0.14-0.1,0.33-0.07,0.43,0.07l2.44,3.55c0.1,0.15,0.07,0.35-0.07,0.45C47.5,23.97,47.44,23.99,47.37,23.99z"/>
	<path class="st6" d="M44.61,28.01c-0.03,0-0.06-0.01-0.09-0.02l-3.94-1.35c-0.16-0.06-0.25-0.24-0.2-0.41
		c0.05-0.17,0.23-0.26,0.39-0.21l3.94,1.35c0.16,0.06,0.25,0.24,0.2,0.41C44.86,27.93,44.73,28.01,44.61,28.01z"/>
	<path class="st6" d="M40.66,34.35c-0.13,0-0.25-0.09-0.29-0.22c-0.05-0.17,0.04-0.35,0.2-0.41l3.94-1.35
		c0.16-0.06,0.33,0.04,0.39,0.21c0.05,0.17-0.04,0.35-0.2,0.41l-3.94,1.35C40.72,34.34,40.69,34.35,40.66,34.35z"/>
	<path class="st6" d="M63.04,34.35c-0.03,0-0.06-0.01-0.09-0.02L59,32.98c-0.16-0.06-0.25-0.24-0.2-0.41
		c0.05-0.17,0.23-0.26,0.39-0.21l3.94,1.35c0.16,0.06,0.25,0.24,0.2,0.41C63.29,34.26,63.17,34.35,63.04,34.35z"/>
	<path class="st6" d="M59.09,28.01c-0.13,0-0.25-0.09-0.29-0.22c-0.05-0.17,0.04-0.35,0.2-0.41l3.94-1.35
		c0.16-0.06,0.33,0.04,0.39,0.21s-0.04,0.35-0.2,0.41L59.19,28C59.16,28.01,59.12,28.01,59.09,28.01z"/>
	<path class="st6" d="M56.33,23.99c-0.06,0-0.13-0.02-0.18-0.06c-0.14-0.11-0.17-0.31-0.07-0.45l2.44-3.55
		c0.1-0.14,0.29-0.18,0.43-0.07c0.14,0.11,0.17,0.31,0.07,0.45l-2.44,3.55C56.51,23.94,56.42,23.99,56.33,23.99z"/>
	<path class="st15" d="M50.45,65.48c-5.12,1.29-8.28,6.72-7.06,12.13c1.22,5.41,6.36,8.75,11.48,7.47c0.25-0.06,0.5-0.15,0.74-0.23
		l-4.98-19.4C50.56,65.46,50.5,65.46,50.45,65.48z"/>
	<path class="st16" d="M55.6,84.85c4.68-1.6,7.49-6.76,6.32-11.91c-1.2-5.35-6.25-8.67-11.3-7.5L55.6,84.85z"/>
	<path class="st0" d="M52.65,65.21c-5.26,0-9.53,4.51-9.53,10.07c0,5.56,4.27,10.07,9.53,10.07c5.26,0,9.53-4.51,9.53-10.07
		C62.18,69.72,57.92,65.21,52.65,65.21z"/>
	<path class="st17" d="M31.91,98.69c1.63,1.03,3.12-0.33,3.12-0.33l10.86-11.48c0.03,0.02,0.05,0.03,0.08,0.05l-1.61-1.58
		L31.91,98.69z"/>
	<path class="st18" d="M52.65,61.64c-7.12,0-12.89,6.11-12.89,13.63c0,2.86,0.84,5.51,2.26,7.71L31.29,94.32
		c-1.59,2.13,0,3.86,0,3.86c0.21,0.21,0.42,0.38,0.62,0.51l12.45-13.34l1.61,1.58c1.95,1.25,4.23,1.97,6.68,1.97
		c7.12,0,12.89-6.1,12.89-13.63C65.55,67.75,59.78,61.64,52.65,61.64z M52.65,85.35c-5.26,0-9.53-4.51-9.53-10.07
		c0-5.56,4.27-10.07,9.53-10.07c5.26,0,9.53,4.51,9.53,10.07C62.18,80.84,57.92,85.35,52.65,85.35z"/>
	<path class="st19" d="M114.09,80.58c0-6.77,5.19-12.26,11.6-12.26c6.41,0,11.6,5.49,11.6,12.26c0,6.77-5.19,12.26-11.6,12.26
		C119.28,92.84,114.09,87.35,114.09,80.58z"/>
	<path class="st20" d="M134.53,80.21c0,5.55-4.26,10.05-9.51,10.05c-1.45,0-2.82-0.34-4.05-0.96c1.39,0.84,3,1.33,4.72,1.33
		c5.25,0,9.51-4.5,9.51-10.06c0-4.02-2.23-7.49-5.46-9.1C132.6,73.21,134.53,76.47,134.53,80.21z"/>
	<path class="st6" d="M116.18,80.58c0,3.74,1.93,6.99,4.79,8.73c1.23,0.61,2.6,0.96,4.05,0.96c5.25,0,9.51-4.5,9.51-10.05
		c0-3.74-1.93-7-4.79-8.73c-1.23-0.61-2.6-0.96-4.05-0.96C120.44,70.52,116.18,75.02,116.18,80.58z"/>
	<path class="st21" d="M124.79,80.58c0-0.53,0.4-0.95,0.9-0.95c0.5,0,0.9,0.43,0.9,0.95c0,0.52-0.4,0.95-0.9,0.95
		C125.19,81.53,124.79,81.1,124.79,80.58z"/>
	<path class="st21" d="M125.38,88.63c0-0.1,0.08-0.18,0.17-0.18h0.37c0.1,0,0.18,0.08,0.18,0.19v1.52c0,0.11-0.08,0.19-0.18,0.19
		h-0.36c-0.1,0-0.18-0.08-0.18-0.19V88.63z"/>
	<path class="st21" d="M125.38,71.07c0-0.1,0.08-0.18,0.17-0.18h0.37c0.1,0,0.18,0.08,0.18,0.19v1.52c0,0.1-0.08,0.18-0.17,0.18
		h-0.37c-0.1,0-0.18-0.08-0.18-0.19V71.07z"/>
	<path class="st21" d="M118.21,80.42v0.39c0,0.1-0.08,0.19-0.18,0.19h-1.44c-0.1,0-0.17-0.08-0.17-0.18v-0.39
		c0-0.1,0.08-0.18,0.17-0.18h1.45C118.13,80.23,118.21,80.32,118.21,80.42z"/>
	<path class="st21" d="M128.11,87.62c0.03,0.1-0.02,0.2-0.11,0.23l-0.33,0.11c-0.09,0.03-0.19-0.02-0.22-0.12l-2-6.97
		c-0.03-0.1,0.02-0.2,0.11-0.23l0.33-0.12c0.09-0.03,0.19,0.02,0.22,0.12L128.11,87.62z"/>
	<path class="st21" d="M122.23,78.95c-0.11-0.07-0.15-0.22-0.09-0.34l0.23-0.44c0.06-0.12,0.21-0.16,0.32-0.1l3.05,1.94
		c0.11,0.07,0.15,0.22,0.09,0.34l-0.23,0.44c-0.06,0.12-0.21,0.16-0.32,0.1L122.23,78.95z"/>
	<path class="st21" d="M134.94,80.42v0.39c0,0.1-0.08,0.19-0.18,0.19h-1.44c-0.1,0-0.17-0.08-0.17-0.18v-0.39
		c0-0.1,0.08-0.18,0.17-0.18h1.45C134.86,80.23,134.94,80.32,134.94,80.42z"/>
	<g transform="matrix(1, 0, 0, 1, -5.684341886080802e-14, 0)">
		<path class="st6" d="M110.08,108.07v-39c0-2.49-2.87-2.73-2.87-2.73h-7.65h-7.65c0,0-2.87,0.24-2.87,2.73v39
			c0,0-0.06,2.49,2.67,2.49h7.85h7.85C110.14,110.56,110.08,108.07,110.08,108.07z"/>
		<path class="st22" d="M108.88,72.02H90.24v24.42l18.65-20.04V72.02z"/>
		<path class="st23" d="M90.24,96.47v8.78h18.65V76.43L90.24,96.47z"/>
		<path class="st24" d="M100.82,108.06c0,0.77-0.59,1.39-1.31,1.39c-0.72,0-1.31-0.62-1.31-1.39c0-0.77,0.59-1.39,1.31-1.39
			C100.23,106.68,100.82,107.3,100.82,108.06z"/>
		<g>
			<path class="st25" d="M96.33,69.37h6.45v0.38h-6.45V69.37z"/>
		</g>
	</g>
	<path class="st12" d="M97.63,76.57h8.04c1.05,0,1.89,0.9,1.89,2v8.19v0.33v3.31l-3.08-1.32h-6.85c-1.05,0-1.89-0.9-1.89-2v-8.5
		C95.74,77.47,96.59,76.57,97.63,76.57z"/>
	<path class="st26" d="M101.38,86.8h-8.05c-1.05,0-1.9,0.9-1.9,2v8.19v0.33v3.31l3.08-1.32h6.85c1.05,0,1.89-0.9,1.89-2V88.8
		C103.27,87.7,102.42,86.8,101.38,86.8z"/>
	<path class="st6" d="M99.22,93.07c0,0.74,0.56,1.33,1.26,1.33c0.7,0,1.26-0.6,1.26-1.33c0-0.74-0.56-1.33-1.26-1.33
		C99.78,91.74,99.22,92.34,99.22,93.07z"/>
	<path class="st6" d="M98.61,93.07c0,0.74-0.56,1.33-1.26,1.33l0,0c-0.7,0-1.26-0.6-1.26-1.33l0,0c0-0.74,0.56-1.33,1.26-1.33l0,0
		C98.04,91.74,98.61,92.34,98.61,93.07L98.61,93.07z"/>
	<path class="st6" d="M92.95,93.07c0,0.74,0.56,1.33,1.26,1.33c0.7,0,1.26-0.6,1.26-1.33c0-0.74-0.56-1.33-1.26-1.33
		C93.52,91.74,92.95,92.34,92.95,93.07z"/>
	<path class="st13" d="M98.13,79.6h7.17v0.51h-7.17V79.6z"/>
	<path class="st13" d="M98.13,81.5h7.17V82h-7.17V81.5z"/>
	<path class="st13" d="M98.13,83.52h7.17v0.51h-7.17V83.52z"/>
	<path class="st13" d="M98.13,85.42h7.17v0.51h-7.17V85.42z"/>
	<g transform="matrix(1, 0, 0, 1, -5.684341886080802e-14, 0)">
		<path class="st2" d="M150.4,69.82c-0.08,0.08-0.18,0.13-0.3,0.13c-4.38,0-7.94-3.76-7.94-8.39c0-0.25,0.19-0.45,0.42-0.45
			c0.23,0,0.42,0.2,0.42,0.45c0,4.13,3.18,7.49,7.09,7.49c0.23,0,0.42,0.2,0.42,0.45C150.52,69.62,150.48,69.74,150.4,69.82z"/>
	</g>
	<path class="st2" d="M150.4,75.62c-0.08,0.08-0.18,0.13-0.3,0.13c-3.58,0-6.96-1.48-9.49-4.16c-2.53-2.68-3.93-6.24-3.93-10.03
		c0-0.25,0.19-0.45,0.42-0.45c0.23,0,0.42,0.2,0.42,0.45c0,3.55,1.31,6.89,3.68,9.4c2.37,2.51,5.53,3.89,8.89,3.89
		c0.23,0,0.42,0.2,0.42,0.45C150.52,75.42,150.48,75.53,150.4,75.62z"/>
	<path class="st2" d="M152.58,64.18c-1.37,1.45-3.59,1.45-4.96,0c-1.37-1.45-1.37-3.8,0-5.25c1.37-1.45,3.59-1.45,4.96,0
		S153.95,62.73,152.58,64.18z M148.22,59.57c-1.04,1.1-1.04,2.88,0,3.98c1.04,1.1,2.72,1.1,3.76,0c1.04-1.1,1.04-2.88,0-3.98
		C150.94,58.47,149.26,58.47,148.22,59.57z"/>
</g>
</svg>
