<?xml version="1.0" encoding="utf-8"?>
<!-- Generator: Adobe Illustrator 24.2.1, SVG Export Plug-In . SVG Version: 6.00 Build 0)  -->
<svg version="1.1" id="Layer_1" xmlns="http://www.w3.org/2000/svg" xmlns:xlink="http://www.w3.org/1999/xlink" x="0px" y="0px"
	 viewBox="0 0 225 139" style="enable-background:new 0 0 225 139;" xml:space="preserve">
<style type="text/css">
	.st0{fill:none;}
	.st1{fill:#2B3844;}
	.st2{fill:#FFFFFF;}
	.st3{fill:#FFC63F;}
	.st4{fill:#74A7FF;}
	.st5{fill:#7FAEFF;}
	.st6{fill:#FFFFFE;}
	.st7{fill:#242456;}
	.st8{fill:#354350;}
	.st9{fill:#FFD36A;}
	.st10{fill:#ABADAF;}
	.st11{fill:#CACBCD;}
	.st12{fill:#E6E7E8;}
	.st13{fill:#EFEFF0;}
	.st14{fill:#6A9CFF;}
	.st15{fill:#2D3A46;}
</style>
<g>
	<g>
		<path class="st0" d="M0,0h225v139H0V0z"/>
	</g>
	<g>
		<path class="st1" d="M52.71,121.84c0,1.33-1.22,2.41-2.73,2.41H16.07c-1.5,0-2.74-1.08-2.74-2.41V94.32
			c0-1.32,1.22-2.41,2.74-2.41h33.9c1.51,0,2.74,1.09,2.74,2.41V121.84z"/>
		<path class="st2" d="M21.36,119.15l6.3-15.39l8.58,2.43l8.47-9.13l-6.49,15.25l-8.49-2.33L21.36,119.15z"/>
	</g>
	<g>
		<path class="st3" d="M44.92,51.06H10.53c-1.72,0-3.13-1.24-3.13-2.77V17.94c0-1.52,1.41-2.77,3.13-2.77h34.39
			c1.72,0,3.13,1.24,3.13,2.77V48.3C48.05,49.82,46.64,51.06,44.92,51.06z"/>
		<g>
			<g>
				<g>
					<path class="st2" d="M23.9,40.9l3.73,0.26c0.53-4.45,4.82-7.82,9.84-7.79l0.29-3.3C30.68,29.91,24.59,34.63,23.9,40.9z"/>
				</g>
				<g>
					<path class="st2" d="M13.43,40.16l3.73,0.27c1-9.55,10.33-16.71,21.12-16.3l0.29-3.3C25.73,20.28,14.59,28.82,13.43,40.16z"/>
				</g>
			</g>
			<path class="st2" d="M36.96,38.84c2.01,0.14,3.52,1.7,3.36,3.48c-0.16,1.77-1.93,3.11-3.94,2.96c-2.01-0.14-3.52-1.69-3.36-3.47
				C33.19,40.04,34.95,38.7,36.96,38.84z"/>
		</g>
	</g>
	<g>
		<path class="st4" d="M52.86,83.54c0,1.24-1.15,2.27-2.57,2.27H22.48c-1.4,0-2.55-1.01-2.55-2.25V58.99c0-1.23,1.14-2.25,2.55-2.25
			h27.84c1.4,0,2.55,1.01,2.55,2.25v24.55H52.86z"/>
		<path class="st2" d="M26.03,67.79c-0.34,3.83,2.89,7.16,7.22,7.47c1.64,0.11,3.21-0.23,4.55-0.91l6.01,6.21
			c1.16,0.94,2.22,0.16,2.22,0.16c1.19-0.92,0.29-2,0.29-2l-6.09-6.3c0.84-1.01,1.37-2.21,1.49-3.55c0.34-3.83-2.89-7.16-7.23-7.47
			C30.16,61.11,26.37,63.98,26.03,67.79z M39.68,68.74c-0.26,2.82-3.05,4.94-6.25,4.71c-3.2-0.23-5.59-2.69-5.34-5.52
			c0.26-2.82,3.05-4.94,6.25-4.71C37.54,63.45,39.94,65.92,39.68,68.74z"/>
		<path class="st2" d="M37.32,65.44c-1.46-1.52-4.03-1.7-5.75-0.41c-0.18,0.14-0.34,0.28-0.48,0.44c1.74-0.4,3.66,0.07,4.9,1.36
			c0.96,1.01,1.32,2.3,1.08,3.5C38.59,69.03,38.71,66.89,37.32,65.44z"/>
	</g>
	<g>
		<g>
			<g>
				<path class="st5" d="M211.62,26.95h-28.06c-2.33,0-4.21,1.66-4.21,3.72v22.21c0,2.05,1.88,3.72,4.21,3.72h22.84l7.09,4.32
					l-1.3-4.36c2.06-0.24,3.64-1.8,3.64-3.68v-22.2C215.84,28.61,213.94,26.95,211.62,26.95z"/>
				<path class="st6" d="M184.66,33.33h25.88v2.41h-25.88V33.33z"/>
				<path class="st6" d="M184.66,38.15h25.88v2.41h-25.88V38.15z"/>
				<path class="st6" d="M184.66,42.83h25.88v2.41h-25.88V42.83z"/>
				<path class="st6" d="M184.66,47.66h25.88v2.41h-25.88V47.66z"/>
			</g>
			<g>
				<g>
					<path class="st3" d="M201.16,39.71h-28.04c-2.32,0-4.21,1.66-4.21,3.72v22.2c0,2.05,1.89,3.72,4.21,3.72h1.32l-1.3,4.39
						l7.2-4.39h20.84c2.33,0,4.21-1.66,4.21-3.72V43.42C205.38,41.38,203.5,39.71,201.16,39.71z"/>
				</g>
			</g>
		</g>
		<path class="st6" d="M180.54,54.76c0,1.72-1.58,3.11-3.52,3.11c-1.94,0-3.52-1.39-3.52-3.11s1.58-3.11,3.52-3.11
			C178.97,51.65,180.54,53.04,180.54,54.76z"/>
		<path class="st6" d="M190.7,54.76c0,1.72-1.57,3.11-3.52,3.11s-3.52-1.39-3.52-3.11s1.58-3.11,3.52-3.11
			C189.14,51.65,190.7,53.04,190.7,54.76z"/>
		<path class="st6" d="M200.88,54.76c0,1.72-1.57,3.11-3.52,3.11s-3.52-1.39-3.52-3.11s1.58-3.11,3.52-3.11
			C199.3,51.65,200.88,53.04,200.88,54.76z"/>
	</g>
	<path class="st7" d="M216.24,102.6c-0.92-1.79-1.04-4.1-1.04-4.1c-0.02-0.75-0.22-1.26-0.51-1.62c0.13-0.26,0.21-0.54,0.21-0.84
		c0-0.79-0.53-1.49-1.3-1.82v-5.19c0-0.74-0.22-1.32-0.58-1.8c0.24-0.35,0.31-0.7,0.31-0.94c0-0.55-0.32-1.59-2.44-2.31l-24.98-8.51
		c-1.2-0.41-2.79-0.64-4.47-0.64c-1.85,0-3.6,0.27-4.93,0.77l-25.07,9.3c-2.09,0.78-2.38,1.82-2.36,2.37
		c0.02,0.55,0.37,1.57,2.51,2.24L162,92.76v9.37c0,3.83,9.38,5.84,18.63,5.84c9.27,0,18.65-2,18.65-5.84v-9.54l11.52-3.97
		c0.19-0.07,0.38-0.14,0.54-0.21c0.1,0.18,0.16,0.4,0.16,0.64v5.19c-0.76,0.33-1.28,1.01-1.28,1.82c0,0.38,0.13,0.74,0.33,1.04
		c-0.19,0.35-0.32,0.81-0.33,1.42c0,0-0.13,2.31-1.03,4.1c0,0-1.4,1.45,0,1.79h3.7h3.32C217.65,104.05,216.24,102.6,216.24,102.6z
		 M197.2,93.23v8.92c0,1.66-6.48,4.07-16.63,4.07s-16.63-2.41-16.63-4.07v-8.8l12.48,3.88c1.21,0.37,2.8,0.58,4.47,0.58
		c1.88,0,3.65-0.26,4.99-0.71L197.2,93.23z M185.17,95.45c-1.09,0.37-2.65,0.58-4.26,0.58c-1.45,0-2.8-0.17-3.79-0.48l-15.14-4.69
		l0,0l-9.76-3.04c-0.9-0.28-1.16-0.58-1.17-0.62c0.02-0.07,0.26-0.37,1.14-0.69l25.09-9.3c1.08-0.4,2.59-0.62,4.16-0.62
		c1.43,0,2.76,0.18,3.74,0.52l24.89,8.48c-0.53-0.11-1.06-0.16-1.48-0.19h-27.4c-0.55,0.04-1,0.44-1,0.92c0,0.48,0.45,0.88,1,0.78
		h27.4c0.03,0.09,0.31,0.09,0.68,0.15l-10.04,3.42l0,0L185.17,95.45z"/>
	<g>
		<path class="st8" d="M182.39,23.97c0-1.72-1.58-3.12-3.55-3.12H46.14c-1.96,0-3.55,1.4-3.55,3.13v70.76h139.82V23.97H182.39z"/>
		<path class="st1" d="M46.24,94.75c-0.33,0-0.59-0.24-0.59-0.52V24.07c0-0.28,0.26-0.52,0.59-0.52h132.69
			c0.33,0,0.59,0.24,0.59,0.52v70.15c0,0.29-0.27,0.52-0.59,0.52H46.24z"/>
		<path class="st9" d="M48.38,25.81h128.41v66.52H48.38V25.81z"/>
		<path class="st5" d="M147.97,30.64H77.2c-3.33,0-6.01,2.35-6.01,5.26v47.35c0,2.91,2.68,5.26,6.01,5.26h31.34
			c0.43,1.62,2.07,2.81,4.03,2.81s3.6-1.21,4.03-2.81h31.34c3.33,0,6.01-2.35,6.01-5.26V35.9C153.98,33,151.3,30.64,147.97,30.64z"
			/>
		<path class="st2" d="M75.05,30.4v50.13c0,1.75,1.6,3.16,3.58,3.16h30.23c0.37,0,0.72,0.04,1.06,0.14V27.23H78.64
			C76.66,27.23,75.05,28.65,75.05,30.4z"/>
		<path class="st2" d="M146.35,27.23h-31.27v56.59c0.34-0.09,0.69-0.14,1.06-0.14h30.23c1.98,0,3.58-1.42,3.58-3.16V30.4
			C149.93,28.65,148.34,27.23,146.35,27.23z"/>
		<g>
			<path class="st10" d="M122.53,104.11h-18.19l-0.26,1.42l18.76,0.28L122.53,104.11z"/>
			<path class="st11" d="M125.84,121.55l-2.98-15.89l-18.81-0.27l-3.03,16.16H125.84z"/>
			<path class="st2" d="M42.75,94.75v6.23c0,1.73,1.59,3.13,3.55,3.13h132.54c1.96,0,3.57-1.42,3.57-3.15v-6.21H42.75z"/>
			<path class="st8" d="M115.21,99.83c0,1.3-1.21,2.37-2.68,2.37c-1.49,0-2.68-1.06-2.68-2.37s1.21-2.37,2.68-2.37
				C114.01,97.47,115.21,98.52,115.21,99.83z"/>
			<path class="st2" d="M137.54,119.85H87.46c-2.24,0-4.05,1.6-4.05,3.57v1.53h58.18v-1.53
				C141.59,121.45,139.78,119.85,137.54,119.85z"/>
			<path class="st12" d="M110.09,27.37v56.54c1.44,0.4,2.49,1.6,2.49,3.02c0-1.42,1.05-2.62,2.49-3.02V27.37H110.09z"/>
			<path class="st13" d="M78.59,41.56h28.12v2.41H78.59V41.56z"/>
			<path class="st13" d="M78.59,46.66h28.12v2.41H78.59V46.66z"/>
			<path class="st13" d="M78.59,51.77h28.12v2.41H78.59V51.77z"/>
			<path class="st13" d="M78.59,57.02h28.12v2.41H78.59V57.02z"/>
			<path class="st13" d="M78.59,62.12h28.12v2.41H78.59V62.12z"/>
			<path class="st13" d="M78.59,67.23h28.12v2.41H78.59V67.23z"/>
			<path class="st13" d="M118.45,41.56h28.12v2.41h-28.12V41.56z"/>
			<path class="st13" d="M118.45,46.66h28.12v2.41h-28.12V46.66z"/>
			<path class="st13" d="M118.45,51.77h28.12v2.41h-28.12V51.77z"/>
			<path class="st13" d="M118.45,57.02h28.12v2.41h-28.12V57.02z"/>
			<path class="st13" d="M118.45,62.12h28.12v2.41h-28.12V62.12z"/>
			<path class="st13" d="M118.45,67.23h14.95v2.41h-14.95V67.23z"/>
			<path class="st5" d="M109.74,29.04l-10.26-3.18v2.94l0,0c0,2.04,5.87,3.68,13.1,3.68c7.23,0,13.1-1.64,13.1-3.68l0,0v-3.07
				l-9.43,3.21C114.47,29.55,111.54,29.6,109.74,29.04z"/>
			<path class="st14" d="M99.48,18.58v7.28l10.26,3.19c1.8,0.57,4.73,0.52,6.51-0.09l9.43-3.22v-7.16H99.48z"/>
			<path class="st5" d="M116.21,24.42c-1.78,0.61-4.73,0.65-6.53,0.09l-18.56-5.76c-1.8-0.57-1.83-1.56-0.08-2.21l18.71-6.94
				c1.77-0.65,4.66-0.69,6.44-0.09l18.63,6.35c1.78,0.61,1.78,1.6,0,2.21L116.21,24.42z"/>
			<g>
				<g>
					<path class="st15" d="M136.38,24.43c-0.51,0-0.93-0.37-0.9-0.82V19c-0.03-1.18-1.99-1.19-2.09-1.13h-20.43
						c-0.51-0.06-0.93-0.43-0.93-0.88c0-0.45,0.42-0.82,0.93-0.82h20.44c1.35,0,3.92,0.59,4,2.83v4.61
						C137.31,24.07,136.89,24.43,136.38,24.43z"/>
				</g>
			</g>
			<path class="st15" d="M139.1,29.16c-0.68-1.33-0.77-3.05-0.77-3.05c-0.03-1.97-1.94-1.83-1.94-1.83s-1.69-0.14-1.7,1.83
				c0,0-0.1,1.72-0.77,3.05c0,0-1.06,1.08,0,1.33h2.72h2.49C140.16,30.24,139.1,29.16,139.1,29.16z"/>
			<path class="st8" d="M138.08,24.22c0,0.84-0.77,1.5-1.7,1.5s-1.7-0.68-1.7-1.5c0-0.84,0.77-1.5,1.7-1.5
				S138.08,23.38,138.08,24.22z"/>
		</g>
	</g>
</g>
</svg>
