<?xml version="1.0" encoding="utf-8"?>
<!-- Generator: Adobe Illustrator 24.2.1, SVG Export Plug-In . SVG Version: 6.00 Build 0)  -->
<svg version="1.1" id="Layer_1" xmlns="http://www.w3.org/2000/svg" xmlns:xlink="http://www.w3.org/1999/xlink" x="0px" y="0px"
	 viewBox="0 0 99 131" style="enable-background:new 0 0 99 131;" xml:space="preserve">
<style type="text/css">
	.st0{fill:#FFDE00;}
	.st1{fill:#FFFFFF;}
	.st2{fill:#F4AC40;}
	.st3{fill:none;stroke:#000000;stroke-width:0.5;}
</style>
<g>
	<path class="st0" d="M42.74,25.61c-1.84,3.46-4.29,8.03-6.73,12.58c-4.9,9.11-9.79,18.17-9.8,18.18c-0.03,0.05-0.04,0.11-0.04,0.16
		c0,0.08,0.02,0.15,0.08,0.22c0.07,0.09,0.17,0.14,0.28,0.14c0.03,0,0.06,0,0.09-0.01l12.57-3c0.41-0.1,0.84,0.05,1.1,0.37
		c0.26,0.32,0.31,0.77,0.12,1.13L24.23,87.11c-0.02,0.04-0.04,0.09-0.04,0.15c0,0.08,0.03,0.16,0.08,0.22
		c0.07,0.08,0.17,0.13,0.28,0.13c0.03,0,0.06,0,0.08-0.01l10.49-2.5c0.41-0.1,0.85,0.05,1.11,0.38c0.26,0.33,0.3,0.78,0.1,1.15
		c-0.01,0.01-2.69,4.92-6.07,11.11c-3.38,6.2-7.46,13.67-10.24,18.78c-0.33,0.6-0.64,1.17-0.93,1.71l6.8-6.07l28.09-25.21
		c0.15-0.14,0.23-0.33,0.24-0.53c0-0.11-0.03-0.23-0.08-0.33c-0.13-0.23-0.38-0.38-0.64-0.38c-0.06,0-0.11,0.01-0.17,0.02
		l-6.34,1.51c-0.29,0.07-0.6-0.05-0.77-0.29c-0.17-0.24-0.16-0.57,0.01-0.81l24.27-33.5c0.09-0.12,0.13-0.27,0.13-0.41
		c0-0.14-0.04-0.28-0.12-0.39c-0.14-0.2-0.36-0.31-0.6-0.31c-0.05,0-0.11,0.01-0.17,0.02l-0.17-0.69l0.17,0.69l-10.17,2.43
		c-0.29,0.07-0.6-0.05-0.77-0.3c-0.17-0.25-0.16-0.57,0.02-0.81l31.22-41.7c0.09-0.13,0.14-0.27,0.14-0.42
		c0-0.14-0.04-0.27-0.12-0.39c-0.02-0.03-0.05-0.06-0.1-0.11c0,0-0.01-0.01-0.02-0.02c-0.05-0.04-0.09-0.07-0.11-0.08l0,0l0,0
		c-0.03-0.02-0.08-0.04-0.14-0.06c0,0-0.01,0-0.02-0.01c-0.02,0-0.04-0.01-0.06-0.01L45.95,20.45l-0.58,0.14
		c-0.12,0.23-0.26,0.5-0.42,0.81C44.42,22.43,43.65,23.88,42.74,25.61L42.74,25.61z"/>
	<path class="st1" d="M44.59,20.75l-4.8,1.14c0,0-0.01,0.01-0.01,0.01c-0.04,0.04-0.07,0.08-0.09,0.12L18.15,61.89
		c-0.07,0.13-0.11,0.27-0.11,0.41c0,0.19,0.06,0.38,0.19,0.54c0.17,0.22,0.43,0.34,0.71,0.34c0.07,0,0.14-0.01,0.22-0.03l12.19-2.91
		c0.27-0.06,0.56,0.03,0.73,0.25c0.17,0.21,0.21,0.51,0.08,0.76L16.17,92.64c-0.06,0.12-0.09,0.25-0.09,0.39
		c0,0.2,0.07,0.39,0.2,0.55c0.17,0.21,0.44,0.33,0.71,0.33c0.07,0,0.14-0.01,0.21-0.03l10.1-2.41c0.06-0.01,0.11-0.02,0.17-0.02
		c0.22,0,0.43,0.1,0.57,0.27c0.17,0.22,0.2,0.52,0.07,0.77l-16.36,30.27c-0.07,0.13-0.1,0.27-0.1,0.41c0,0.27,0.12,0.53,0.35,0.7
		c0.16,0.12,0.36,0.18,0.55,0.18c0,0,0,0,0.01,0l2.83-2.53l0.38-0.34l1.86-1.66l1.49-1.33c0.29-0.53,0.6-1.1,0.93-1.71
		c2.78-5.11,6.86-12.58,10.24-18.78c3.38-6.19,6.06-11.1,6.07-11.11c0.2-0.37,0.16-0.82-0.1-1.15c-0.26-0.33-0.69-0.48-1.11-0.38
		l-10.49,2.5c-0.03,0.01-0.06,0.01-0.08,0.01c-0.11,0-0.22-0.05-0.28-0.13c-0.05-0.06-0.08-0.14-0.08-0.22
		c0-0.06,0.01-0.11,0.04-0.15L40.4,55.36c0.19-0.37,0.14-0.81-0.12-1.13c-0.26-0.32-0.69-0.47-1.1-0.37l-12.57,3
		c-0.03,0.01-0.06,0.01-0.09,0.01c-0.11,0-0.21-0.05-0.28-0.14c-0.05-0.07-0.08-0.14-0.08-0.22c0-0.06,0.01-0.11,0.04-0.16
		c0,0,4.9-9.06,9.8-18.18c2.45-4.56,4.9-9.12,6.73-12.58c0.92-1.73,1.69-3.18,2.22-4.21c0.16-0.31,0.3-0.58,0.42-0.81l-0.09,0.02
		L44.59,20.75L44.59,20.75z"/>
	<path class="st2" d="M95.91,10.66c0-1.22-0.36-2.44-1.08-3.51c-1.21-1.79-3.24-2.82-5.36-2.82c-0.51,0-1.02,0.06-1.52,0.18
		l-48.97,11.7c-1.79,0.43-3.31,1.59-4.17,3.18L13.25,59.25c-0.5,0.93-0.75,1.95-0.75,2.97c0,1.38,0.46,2.75,1.36,3.88
		c1.24,1.56,3.13,2.45,5.09,2.44c0.51,0,1.02-0.06,1.52-0.18l0.31-0.07c0.07-0.02,0.13-0.02,0.2-0.02c0.25,0,0.5,0.11,0.66,0.31
		c0.12,0.15,0.18,0.33,0.18,0.51c0,0.13-0.03,0.25-0.09,0.37L11.21,90.12c-0.46,0.9-0.68,1.87-0.68,2.83c0,1.41,0.48,2.8,1.4,3.94
		c1.19,1.47,2.96,2.31,4.81,2.38c0.29,0.01,0.55,0.17,0.7,0.41c0.07,0.13,0.11,0.27,0.11,0.41c0,0.13-0.03,0.27-0.1,0.39
		L6.84,120.13c-0.51,0.94-0.75,1.96-0.75,2.96c0,1.91,0.88,3.77,2.5,5.01c1.17,0.89,2.56,1.33,3.95,1.33h0
		c1.56,0,3.12-0.56,4.34-1.66l40.98-36.77c1.37-1.23,2.1-2.94,2.1-4.67c0-1.01-0.25-2.03-0.76-2.97c-0.41-0.76-0.96-1.41-1.61-1.93
		c-0.21-0.17-0.31-0.4-0.31-0.64c0-0.17,0.05-0.33,0.16-0.48l17.74-24.49c0.79-1.1,1.19-2.38,1.19-3.67c0-1.24-0.37-2.48-1.11-3.55
		c-0.77-1.11-1.85-1.93-3.08-2.38c-0.25-0.09-0.44-0.29-0.51-0.54c-0.03-0.08-0.04-0.16-0.04-0.24c0-0.17,0.06-0.34,0.16-0.49
		l22.87-30.54l-0.58-0.42l0.58,0.42C95.49,13.3,95.91,11.98,95.91,10.66L95.91,10.66z M46.23,86.94c0.17,0.24,0.47,0.36,0.77,0.29
		l6.34-1.51c0.06-0.01,0.11-0.02,0.17-0.02c0.26,0,0.51,0.14,0.64,0.38c0.06,0.1,0.08,0.21,0.08,0.33c0,0.19-0.08,0.39-0.24,0.53
		L25.9,112.14l-6.8,6.07l-1.49,1.33l-1.86,1.66l-0.38,0.34l-2.83,2.53h-0.01c-0.2,0-0.39-0.06-0.55-0.18
		c-0.23-0.17-0.35-0.43-0.35-0.7c0-0.14,0.03-0.28,0.1-0.41L28.09,92.5c0.13-0.25,0.11-0.54-0.07-0.77
		c-0.14-0.18-0.35-0.27-0.57-0.27c-0.06,0-0.11,0.01-0.17,0.02l-10.1,2.41c-0.07,0.02-0.14,0.02-0.21,0.03
		c-0.27,0-0.53-0.12-0.71-0.33c-0.13-0.16-0.2-0.35-0.2-0.55c0-0.14,0.03-0.27,0.09-0.39l15.99-31.39c0.12-0.25,0.09-0.54-0.08-0.76
		c-0.17-0.22-0.46-0.31-0.73-0.25l-12.19,2.91c-0.07,0.02-0.14,0.03-0.22,0.03c-0.27,0-0.53-0.12-0.71-0.34
		c-0.13-0.16-0.19-0.35-0.19-0.54c0-0.14,0.03-0.28,0.11-0.41L39.7,22.03c0.02-0.04,0.05-0.08,0.09-0.12c0,0,0.01-0.01,0.01-0.01
		l4.8-1.14l0.69-0.16l0.09-0.02l0.58-0.14l43.66-10.37c0.02,0,0.04,0.01,0.06,0.01c0.02,0.01,0.02,0.01,0.02,0.01
		c0.06,0.02,0.1,0.04,0.14,0.06l0,0l0,0c0.03,0.01,0.06,0.04,0.11,0.08c0.01,0.01,0.02,0.02,0.02,0.02c0.05,0.05,0.08,0.08,0.1,0.11
		c0.08,0.12,0.12,0.25,0.12,0.39c0,0.15-0.05,0.3-0.14,0.42l-31.22,41.7c-0.18,0.24-0.19,0.56-0.02,0.81
		c0.17,0.25,0.47,0.37,0.77,0.3l10.17-2.43l-0.17-0.69l0.17,0.69c0.06-0.01,0.11-0.02,0.17-0.02c0.23,0,0.46,0.11,0.6,0.31
		c0.08,0.12,0.12,0.26,0.12,0.39c0,0.14-0.04,0.29-0.13,0.41l-24.27,33.5C46.06,86.38,46.06,86.7,46.23,86.94L46.23,86.94z"/>
	<path class="st3" d="M126.92-4.42"/>
</g>
</svg>
